<?xml version="1.0" encoding="UTF-8" standalone="no"?>
<svg
   xmlns:dc="http://purl.org/dc/elements/1.1/"
   xmlns:cc="http://creativecommons.org/ns#"
   xmlns:rdf="http://www.w3.org/1999/02/22-rdf-syntax-ns#"
   xmlns:svg="http://www.w3.org/2000/svg"
   xmlns="http://www.w3.org/2000/svg"
   xmlns:sodipodi="http://sodipodi.sourceforge.net/DTD/sodipodi-0.dtd"
   xmlns:inkscape="http://www.inkscape.org/namespaces/inkscape"
   width="1024"
   height="128"
   viewBox="0 0 270.93333 33.866666"
   version="1.1"
   id="svg8"
   inkscape:version="1.0.1 (3bc2e813f5, 2020-09-07)"
   sodipodi:docname="objects.svg">
  <defs
     id="defs2" />
  <sodipodi:namedview
     id="base"
     pagecolor="#303030"
     bordercolor="#666666"
     borderopacity="1.0"
     inkscape:pageopacity="0"
     inkscape:pageshadow="2"
     inkscape:zoom="5.6"
     inkscape:cx="72.26829"
     inkscape:cy="77.933487"
     inkscape:document-units="px"
     inkscape:current-layer="layer1"
     inkscape:document-rotation="0"
     showgrid="true"
     units="px"
     inkscape:pagecheckerboard="false"
     inkscape:window-width="1600"
     inkscape:window-height="1179"
     inkscape:window-x="0"
     inkscape:window-y="0"
     inkscape:window-maximized="1"
     inkscape:snap-bbox="false"
     inkscape:snap-smooth-nodes="true"
     inkscape:snap-global="true">
    <inkscape:grid
       type="xygrid"
       id="grid833"
       empspacing="16" />
  </sodipodi:namedview>
  <metadata
     id="metadata5">
    <rdf:RDF>
      <cc:Work
         rdf:about="">
        <dc:format>image/svg+xml</dc:format>
        <dc:type
           rdf:resource="http://purl.org/dc/dcmitype/StillImage" />
        <dc:title></dc:title>
      </cc:Work>
    </rdf:RDF>
  </metadata>
  <g
     inkscape:label="Layer 1"
     inkscape:groupmode="layer"
     id="layer1">
    <rect
       style="fill:#2a2aff;fill-opacity:0.686535;fill-rule:evenodd;stroke-width:1.265;paint-order:stroke markers fill;stop-color:#000000"
       id="rect835"
       width="33.866665"
       height="4.2333331"
       x="0"
       y="-8.4666662"
       ry="2.1166666" />
    <rect
       style="fill:#2a2aff;fill-opacity:0.686535;fill-rule:evenodd;stroke-width:1.265;paint-order:stroke markers fill;stop-color:#000000"
       id="rect837"
       width="33.866665"
       height="4.2333331"
       x="33.866665"
       y="-8.4666662"
       ry="2.1166666" />
    <rect
       style="fill:#2a2aff;fill-opacity:0.686535;fill-rule:evenodd;stroke-width:1.265;paint-order:stroke markers fill;stop-color:#000000"
       id="rect839"
       width="33.866665"
       height="4.2333331"
       x="67.733337"
       y="-8.4666662"
       ry="2.1166666" />
    <rect
       style="fill:#2a2aff;fill-opacity:0.686535;fill-rule:evenodd;stroke-width:1.265;paint-order:stroke markers fill;stop-color:#000000"
       id="rect841"
       width="33.866665"
       height="4.2333331"
       x="101.6"
       y="-8.4666662"
       ry="2.1166666" />
    <rect
       style="fill:#2a2aff;fill-opacity:0.686535;fill-rule:evenodd;stroke-width:1.265;paint-order:stroke markers fill;stop-color:#000000"
       id="rect843"
       width="33.866665"
       height="4.2333331"
       x="135.46666"
       y="-8.4666662"
       ry="2.1166666" />
    <rect
       style="fill:#2a2aff;fill-opacity:0.686535;fill-rule:evenodd;stroke-width:1.265;paint-order:stroke markers fill;stop-color:#000000"
       id="rect845"
       width="33.866665"
       height="4.2333331"
       x="169.33333"
       y="-8.4666662"
       ry="2.1166666" />
    <rect
       style="fill:#2a2aff;fill-opacity:0.686535;fill-rule:evenodd;stroke-width:1.265;paint-order:stroke markers fill;stop-color:#000000"
       id="rect847"
       width="33.866665"
       height="4.2333331"
       x="203.2"
       y="-8.4666662"
       ry="2.1166666" />
    <rect
       style="fill:#2a2aff;fill-opacity:0.686535;fill-rule:evenodd;stroke-width:1.265;paint-order:stroke markers fill;stop-color:#000000"
       id="rect849"
       width="33.866665"
       height="4.2333331"
       x="237.06667"
       y="-8.4666662"
       ry="2.1166666" />
    <rect
       style="fill:#ffffff;fill-opacity:1;fill-rule:evenodd;stroke-width:1.265;paint-order:stroke markers fill;stop-color:#000000"
       id="rect887"
       width="33.866665"
       height="33.866665"
       x="-38.099998"
       y="0"
       ry="0" />
    <path
       id="path891"
       style="fill:#757575;fill-opacity:1;fill-rule:evenodd;stroke-width:4.7811;paint-order:stroke markers fill;stop-color:#000000"
       d="M 63.755859 16 A 48.000001 48.000001 0 0 0 16 64 A 48.000001 48.000001 0 0 0 64 112 A 48.000001 48.000001 0 0 0 112 64 A 48.000001 48.000001 0 0 0 64 16 A 48.000001 48.000001 0 0 0 63.755859 16 z M 63.859375 21.166016 A 42.834055 42.834055 0 0 1 64 21.166016 A 42.834055 42.834055 0 0 1 106.83398 64 A 42.834055 42.834055 0 0 1 64 106.83398 A 42.834055 42.834055 0 0 1 21.166016 64 A 42.834055 42.834055 0 0 1 63.859375 21.166016 z "
       transform="scale(0.26458333)" />
    <circle
       style="fill:#ffffff;fill-opacity:0.61156201;fill-rule:evenodd;stroke-width:1.12886;paint-order:stroke markers fill;stop-color:#000000"
       id="circle893"
       cx="16.933332"
       cy="16.933332"
       r="11.333177" />
    <rect
       style="fill:#757575;fill-opacity:1;fill-rule:evenodd;stroke-width:1.265;paint-order:stroke markers fill;stop-color:#000000"
       id="rect902"
       width="25.4"
       height="4.2333331"
       x="38.099998"
       y="14.816666"
       ry="1.5880814" />
    <path
       id="rect906"
       style="fill:#f2f2f2;fill-opacity:1;fill-rule:evenodd;stroke-width:1.98786;paint-order:stroke markers fill;stop-color:#000000"
       d="m 84.666666,4.2333333 c -3.685419,0 -6.652381,2.9669627 -6.652381,6.6523807 v 13.304762 c 0,1.214808 0.32743,2.348037 0.891639,3.32619 1.147457,-1.989314 3.29013,-3.32619 5.760742,-3.32619 2.470611,0 4.613284,1.336876 5.760741,3.32619 0.564209,-0.978153 0.891639,-2.111382 0.891639,-3.32619 V 10.885714 c 0,-3.685418 -2.966961,-6.6523807 -6.65238,-6.6523807 z" />
    <path
       id="path916"
       style="fill:#f2f2f2;fill-opacity:1;fill-rule:evenodd;stroke:none;stroke-width:1.05833;stroke-miterlimit:4;stroke-dasharray:none;paint-order:stroke markers fill;stop-color:#000000"
       d="m 118.53333,29.633333 c -7.01402,0 -12.7,-5.685984 -12.7,-12.7 0,-7.0140164 5.68598,-12.6999997 12.7,-12.6999997 z"
       sodipodi:nodetypes="cscc" />
    <path
       id="path919"
       style="fill:#f2f2f2;fill-opacity:1;fill-rule:evenodd;stroke-width:0.79374999;paint-order:stroke markers fill;stop-color:#000000;stroke:none;stroke-miterlimit:4;stroke-dasharray:none"
       d="m 84.666666,4.2333333 c -3.685419,0 -6.652381,2.9669627 -6.652381,6.6523807 v 13.304762 c 0,1.214808 0.32743,2.348037 0.891639,3.32619 1.147457,-1.989314 3.29013,-3.32619 5.760742,-3.32619 2.470611,0 4.613284,1.336876 5.760741,3.32619 0.564209,-0.978153 0.891639,-2.111382 0.891639,-3.32619 V 10.885714 c 0,-3.685418 -2.966961,-6.6523807 -6.65238,-6.6523807 z" />
    <path
       id="path921"
       style="fill:#ffffff;fill-opacity:0.99937356;fill-rule:evenodd;stroke:none;stroke-width:0.79375;stroke-miterlimit:4;stroke-dasharray:none;paint-order:stroke markers fill;stop-color:#000000"
       d="m 241.3,16.933333 c 7.01402,10e-7 12.7,-5.685982 12.7,-12.6999983 0,7.0140153 5.68598,12.6999983 12.7,12.6999983 -7.01402,10e-7 -12.7,5.685984 -12.7,12.7 0,-7.014017 -5.68598,-12.7 -12.7,-12.7 z"
       sodipodi:nodetypes="ccccc" />
    <text
       xml:space="preserve"
       style="font-style:normal;font-variant:normal;font-weight:normal;font-stretch:normal;font-size:14.1718px;line-height:1.25;font-family:Roboto;-inkscape-font-specification:Roboto;letter-spacing:0px;word-spacing:0px;fill:#000000;fill-opacity:1;stroke:none;stroke-width:0.885738"
       x="12.661469"
       y="21.513926"
       id="text936"><tspan
         sodipodi:role="line"
         id="tspan934"
         x="12.661469"
         y="21.513926"
         style="stroke-width:0.885738">R</tspan></text>
  </g>
</svg>
